<svg width="24" height="24" viewBox="0 0 24 24" fill="none" xmlns="http://www.w3.org/2000/svg">
<g clip-path="url(#clip0_900_1316)">
<path fill-rule="evenodd" clip-rule="evenodd" d="M11.9999 0C15.3156 0 18.3122 1.34255 20.4849 3.51478C22.6574 5.68777 24 8.69095 24 11.9999C24 15.3157 22.6574 18.3122 20.4849 20.4852C18.3122 22.6576 15.3156 24 11.9999 24C8.68411 24 5.68753 22.6576 3.51478 20.4852C1.34231 18.3122 0 15.3157 0 11.9999C0 8.69095 1.34231 5.68777 3.51478 3.51478C5.68753 1.34255 8.68411 0 11.9999 0ZM17.176 8.5251C17.8138 8.5251 18.4583 8.5251 18.6376 8.65785C18.9767 8.95035 18.3782 9.8804 17.8336 10.6512C17.6993 10.8467 17.525 11.0603 17.3494 11.2756C16.9519 11.7627 16.5476 12.2581 16.5846 12.5714C16.6092 12.8271 16.9957 13.2009 17.4323 13.6231C18.0619 14.2319 18.7954 14.9413 18.6972 15.5417C18.6359 15.9318 18.084 15.9339 17.5076 15.936C17.3968 15.9364 17.2852 15.9369 17.1759 15.94C16.5514 15.9667 15.9404 15.9203 15.6607 15.8075C15.4462 15.7235 15.0659 15.3283 14.69 14.9375C14.2625 14.4931 13.8406 14.0546 13.6744 14.0863C13.2102 14.1819 13.1594 14.8436 13.1229 15.3193C13.1035 15.5724 13.0882 15.7728 13.0168 15.8075C12.7044 15.9532 11.7341 15.9139 11.3555 15.8737C9.36211 15.5417 8.21246 14.2126 7.12974 12.4986C5.79408 10.412 5.0034 8.85735 5.34254 8.65785C5.66421 8.47908 6.53123 8.49805 7.45979 8.51836C7.56622 8.52069 7.67346 8.52303 7.78079 8.5251C8.00014 8.53419 8.4957 9.6081 8.86172 10.4013C9.02806 10.7618 9.16764 11.0643 9.2424 11.1825C10.1859 12.6909 10.4784 11.5748 10.4983 11.4416C10.7408 8.89865 10.1745 8.84038 9.77959 8.79975C9.75249 8.79696 9.72619 8.79426 9.70102 8.79084C9.98644 7.91376 12.02 8.0669 12.02 8.0669C12.02 8.0669 12.6976 8.2326 12.9435 8.40557C13.0431 8.46496 13.156 8.69099 13.1496 9.38887C13.1459 9.50714 13.1413 9.62997 13.1365 9.7549C13.0985 10.7596 13.0554 11.9 13.4749 11.9C13.8339 11.9137 14.3984 11.0635 14.8639 10.1859C14.9975 9.92967 15.121 9.67554 15.2315 9.4481C15.4562 8.9858 15.6273 8.63376 15.7206 8.59823C15.8486 8.5481 16.3262 8.53995 16.8606 8.53083C16.9643 8.52906 17.0701 8.52726 17.176 8.5251Z" fill="#157E8D"/>
</g>
<defs>
<clipPath id="clip0_900_1316">
<rect width="24" height="24" fill="white"/>
</clipPath>
</defs>
</svg>
